<?xml version="1.0" standalone="no"?>
<!DOCTYPE svg PUBLIC "-//W3C//DTD SVG 20010904//EN"
 "http://www.w3.org/TR/2001/REC-SVG-20010904/DTD/svg10.dtd">
<svg version="1.0" xmlns="http://www.w3.org/2000/svg"
 width="400.000000pt" height="400.000000pt" viewBox="0 0 400.000000 400.000000"
 preserveAspectRatio="xMidYMid meet">

<g transform="translate(0.000000,400.000000) scale(0.100000,-0.100000)"
fill="#000000" stroke="none">
<path d="M1642 3571 c-51 -16 -95 -31 -98 -33 -2 -3 20 -14 50 -25 l55 -20 46
53 c25 30 45 54 43 53 -2 0 -45 -13 -96 -28z"/>
<path d="M1447 2983 c-29 -134 -37 -213 -37 -373 0 -444 151 -928 462 -1477
38 -68 71 -123 72 -123 2 0 -24 62 -59 137 -331 726 -431 1261 -296 1584 l28
66 -69 124 c-38 68 -73 128 -77 132 -4 4 -15 -27 -24 -70z"/>
<path d="M2064 2381 c-109 -50 -133 -183 -47 -266 49 -48 113 -65 241 -65
l105 0 -56 53 c-72 66 -121 149 -138 232 -12 60 -15 65 -38 65 -14 0 -44 -9
-67 -19z"/>
<path d="M1260 1664 c1 -112 11 -348 26 -602 6 -95 10 -114 25 -123 29 -15
208 -37 404 -49 99 -5 206 -12 238 -14 31 -2 57 -2 57 1 0 2 -11 24 -25 47
-14 24 -22 46 -17 51 4 4 1 4 -7 0 -11 -6 -13 -4 -8 9 4 9 3 15 -2 12 -18 -11
-256 418 -333 600 l-26 61 -149 56 c-81 30 -156 58 -165 62 -17 7 -18 -2 -18
-111z"/>
</g>
</svg>
