<?xml version="1.0" standalone="no"?>
<!DOCTYPE svg PUBLIC "-//W3C//DTD SVG 20010904//EN"
 "http://www.w3.org/TR/2001/REC-SVG-20010904/DTD/svg10.dtd">
<svg version="1.0" xmlns="http://www.w3.org/2000/svg"
 width="400.000000pt" height="400.000000pt" viewBox="0 0 400.000000 400.000000"
 preserveAspectRatio="xMidYMid meet">

<g transform="translate(0.000000,400.000000) scale(0.100000,-0.100000)"
fill="#000000" stroke="none">
<path d="M190 3988 c-95 -21 -160 -91 -180 -193 -8 -44 -10 -534 -8 -1835 3
-1732 3 -1776 22 -1814 25 -50 72 -97 122 -122 38 -19 79 -19 1854 -19 1775 0
1816 0 1854 19 50 25 97 72 122 122 19 38 19 82 22 1814 2 1301 0 1791 -8
1835 -21 105 -85 172 -188 194 -70 15 -3545 14 -3612 -1z m2800 -708 c7 -14
10 -127 8 -345 -3 -279 -5 -326 -19 -340 -16 -17 -95 -45 -319 -115 -74 -23
-173 -54 -220 -70 -47 -15 -125 -40 -175 -55 -49 -15 -94 -31 -98 -35 -5 -5 6
-11 24 -15 19 -4 47 -14 64 -21 16 -7 64 -23 105 -34 41 -12 113 -34 160 -50
47 -15 126 -40 175 -55 50 -15 106 -34 125 -41 19 -7 46 -16 60 -19 54 -13 98
-38 109 -61 17 -38 14 -651 -3 -683 -14 -25 -61 -43 -361 -136 -66 -21 -172
-54 -235 -75 -63 -21 -176 -57 -250 -80 -74 -23 -184 -58 -245 -77 -60 -19
-132 -42 -160 -50 -27 -9 -115 -37 -195 -62 -80 -26 -185 -60 -235 -75 -49
-16 -132 -42 -184 -59 -91 -30 -94 -30 -107 -12 -11 15 -14 83 -14 341 0 292
2 324 18 343 17 22 78 45 322 121 154 48 300 94 380 120 30 9 74 23 98 30 l43
14 -83 27 c-187 62 -404 129 -415 129 -7 0 -27 7 -45 15 -18 8 -92 33 -165 56
-107 34 -133 46 -142 66 -7 16 -11 135 -11 347 0 294 2 326 18 343 16 19 66
39 187 76 174 53 325 100 355 112 19 7 64 22 100 33 116 35 333 103 420 132
47 15 146 46 220 70 74 23 173 55 220 70 47 15 139 44 205 64 66 21 143 45
170 55 66 25 82 25 95 1z"/>
</g>
</svg>
